# xmcd CD database file
#
# Track frame offsets:
#	150
#	29167
#	52978
#	69519
#	91723
#	112528
#	135352
#	153371
#	178663
#	218556
#
# Disc length: 3418 seconds
#
# Revision: 0
# Processed by: cddbd v1.5.2PL0 Copyright (c) Steve Scherf et al.
# Submitted via: CDex 1.70beta2
#
DISCID=760d580a
DTITLE=Escalandrum - Piazzolla plays Piazzolla
DYEAR=2011
DGENRE=Jazz
TTITLE0=Lunfardo
TTITLE1=Buenos Aires hora cero
TTITLE2=Vayamos al diablo
TTITLE3=Oblivion
TTITLE4=Tanguedia 1
TTITLE5=Fuga 9
TTITLE6=Escualo
TTITLE7=Romance del diablo
TTITLE8=Adios nonino
TTITLE9=Libertango
EXTD=YEAR: 2011
EXTT0=
EXTT1=
EXTT2=
EXTT3=
EXTT4=
EXTT5=
EXTT6=
EXTT7=
EXTT8=
EXTT9=
PLAYORDER=
